<?xml version="1.0" encoding="UTF-8" standalone="no"?>
<!DOCTYPE svg PUBLIC "-//W3C//DTD SVG 1.1//EN" "http://www.w3.org/Graphics/SVG/1.1/DTD/svg11.dtd">
<svg width="192.7" height="93" viewBox="0 0 192.7 93" version="1.1" xmlns="http://www.w3.org/2000/svg" xmlns:xlink="http://www.w3.org/1999/xlink" xml:space="preserve" xmlns:serif="http://www.serif.com/" style="fill-rule:evenodd;clip-rule:evenodd;stroke-linejoin:round;stroke-miterlimit:2;">
    <path d="M54.009,38L54.009,93L53.936,93L25.993,53.335L29.016,53.925L1.147,93L1,93L1,38L8.078,38L8.078,76.78L7.635,73.168L27.763,44.709L27.91,44.709L48.332,73.168L47.079,76.485L47.079,38L54.009,38Z" style="fill:#fff;fill-rule:nonzero;"/>
    <path d="M71.435,67.068L71.435,52.216L74.819,52.216L79.542,63.259L84.266,52.216L87.627,52.216L87.627,67.068L84.649,67.068L84.649,57.408L80.67,67.068L78.414,67.068L74.414,57.408L74.414,67.068L71.435,67.068ZM94.381,61.897L89.338,52.216L92.7,52.216L95.892,59.004L99.062,52.216L102.381,52.216L97.36,61.897L97.36,67.068L94.381,67.068L94.381,61.897ZM74.436,89.089L70.435,74.216L73.627,74.216L76.244,85.749L79.266,74.216L82.585,74.216L85.436,85.685L88.074,74.216L91.287,74.216L87.138,89.068L83.627,89.068L80.84,78.493L77.925,89.068L74.436,89.089ZM101.849,74.195L101.849,76.621L96.211,76.621L96.211,80.344L101.211,80.344L101.211,82.706L96.211,82.706L96.211,86.642L101.849,86.642L101.849,89.068L93.232,89.068L93.232,74.195L101.849,74.195ZM112.833,84.685C112.833,83.408 111.918,82.642 110.472,82.642L107.535,82.642L107.535,86.642L110.535,86.642C111.982,86.642 112.833,85.94 112.833,84.685ZM112.472,78.493C112.472,77.302 111.663,76.621 110.259,76.621L107.535,76.621L107.535,80.344L110.259,80.344C111.663,80.344 112.472,79.706 112.472,78.493ZM115.855,85.046C115.855,87.408 114.046,89.068 110.961,89.068L104.556,89.068L104.556,74.216L110.684,74.216C113.791,74.216 115.514,75.833 115.514,78.046C115.514,79.855 114.429,80.982 112.982,81.451C114.663,81.748 115.855,83.302 115.855,85.046ZM123.42,74.216C128.165,74.216 131.251,77.153 131.251,81.663C131.251,86.153 128.165,89.068 123.42,89.068L118.229,89.068L118.229,74.216L123.42,74.216ZM121.208,86.536L123.314,86.536C126.442,86.536 128.208,84.749 128.208,81.663C128.208,78.578 126.442,76.727 123.314,76.727L121.208,76.727L121.208,86.536ZM142.098,74.195L142.098,76.621L136.459,76.621L136.459,80.344L141.459,80.344L141.459,82.706L136.459,82.706L136.459,86.642L142.098,86.642L142.098,89.068L133.48,89.068L133.48,74.195L142.098,74.195ZM155.188,84.77C155.188,87.11 153.316,89.217 149.932,89.217C146.847,89.217 144.464,87.6 144.422,84.791L147.613,84.791C147.698,85.983 148.486,86.77 149.869,86.77C151.273,86.77 152.103,86.025 152.103,84.961C152.103,81.748 144.443,83.685 144.464,78.302C144.464,75.621 146.634,74.004 149.698,74.004C152.741,74.004 154.826,75.557 155.018,78.238L151.741,78.238C151.677,77.259 150.89,76.493 149.613,76.472C148.443,76.429 147.571,77.004 147.571,78.216C147.571,81.195 155.188,79.536 155.188,84.77ZM157.77,89.068L157.77,74.216L160.749,74.216L160.749,89.068L157.77,89.068ZM170.544,74.025C173.863,74.025 176.501,75.706 177.459,78.685L174.033,78.685C173.352,77.429 172.118,76.769 170.544,76.769C167.884,76.769 166.033,78.663 166.033,81.621C166.033,84.642 167.905,86.515 170.671,86.515C172.969,86.515 174.437,85.195 174.884,83.089L169.778,83.089L169.778,80.812L177.82,80.812L177.82,83.408C177.225,86.429 174.522,89.196 170.565,89.196C166.246,89.196 162.969,86.068 162.969,81.621C162.969,77.174 166.246,74.025 170.544,74.025ZM189.748,74.195L192.727,74.195L192.727,89.068L189.748,89.068L183.003,78.876L183.003,89.068L180.024,89.068L180.024,74.195L183.003,74.195L189.748,84.408L189.748,74.195Z" style="fill:#fff;fill-rule:nonzero;"/>
    <rect x="0" y="0" width="54" height="7" style="fill:#fff;"/>
</svg>
